<?xml version="1.0" standalone="no"?>
<!DOCTYPE svg PUBLIC "-//W3C//DTD SVG 20010904//EN"
 "http://www.w3.org/TR/2001/REC-SVG-20010904/DTD/svg10.dtd">
<svg version="1.0" xmlns="http://www.w3.org/2000/svg"
 width="200.000000pt" height="200.000000pt" viewBox="0 0 200.000000 200.000000"
 preserveAspectRatio="xMidYMid meet">

<g transform="translate(0.000000,200.000000) scale(0.100000,-0.100000)"
fill="#000000" stroke="none">
<path d="M180 665 c0 -25 -1 -48 -2 -52 -2 -5 13 -9 32 -11 24 -3 38 2 47 14
31 42 5 94 -48 94 -28 0 -29 -2 -29 -45z m65 6 c8 -26 -4 -51 -26 -51 -15 0
-19 7 -19 35 0 28 4 35 19 35 11 0 22 -8 26 -19z"/>
<path d="M290 700 c0 -5 5 -10 10 -10 6 0 10 5 10 10 0 6 -4 10 -10 10 -5 0
-10 -4 -10 -10z"/>
<path d="M612 658 c3 -50 4 -53 33 -56 37 -5 55 19 55 71 0 54 -24 43 -30 -14
-3 -30 -10 -44 -20 -44 -11 0 -16 13 -18 48 -2 26 -8 47 -13 47 -6 0 -9 -22
-7 -52z"/>
<path d="M1049 688 c-3 -61 -5 -72 -15 -75 -20 -7 -25 29 -8 48 15 16 15 19 2
19 -24 0 -41 -27 -34 -55 5 -21 12 -25 41 -25 l35 0 0 55 c0 30 -4 55 -10 55
-5 0 -10 -10 -11 -22z"/>
<path d="M1143 684 c-15 -24 -15 -29 -2 -53 8 -14 25 -27 37 -29 26 -4 55 15
46 30 -4 6 -10 6 -17 -1 -29 -29 -59 -2 -49 42 3 16 10 18 40 12 32 -6 34 -5
23 9 -21 25 -58 20 -78 -10z"/>
<path d="M858 688 c-3 -7 -3 -30 0 -50 3 -31 8 -38 26 -37 11 0 15 3 9 6 -15
6 -17 49 -3 58 6 4 5 12 -4 21 -18 17 -23 18 -28 2z"/>
<path d="M290 640 c0 -22 5 -40 10 -40 6 0 10 18 10 40 0 22 -4 40 -10 40 -5
0 -10 -18 -10 -40z"/>
<path d="M336 640 c13 -32 14 -43 4 -55 -10 -12 -9 -15 4 -15 16 0 33 30 50
88 10 32 -10 27 -22 -5 l-10 -28 -11 28 c-6 15 -15 27 -21 27 -6 0 -3 -17 6
-40z"/>
<path d="M424 669 c-5 -9 -2 -10 9 -6 27 10 28 -9 1 -22 -34 -15 -26 -35 15
-39 32 -3 32 -3 29 35 -2 30 -7 39 -25 41 -11 2 -25 -2 -29 -9z m36 -43 c0
-11 -19 -15 -25 -6 -3 5 1 10 9 10 9 0 16 -2 16 -4z"/>
<path d="M500 639 c0 -22 5 -39 10 -39 6 0 10 11 10 25 0 14 7 28 15 31 23 9
18 22 -10 22 -22 0 -25 -5 -25 -39z"/>
<path d="M720 639 c0 -47 17 -52 22 -6 2 17 8 32 13 32 6 0 11 -15 13 -32 2
-18 8 -33 13 -33 6 0 9 17 7 38 -3 34 -6 37 -35 39 -32 1 -33 0 -33 -38z"/>
<path d="M820 642 c0 -23 4 -42 8 -42 11 0 10 65 0 76 -5 4 -8 -11 -8 -34z"/>
<path d="M914 666 c-12 -32 0 -61 29 -64 15 -2 27 2 27 8 0 7 -8 9 -20 5 -11
-4 -20 -2 -20 4 0 6 11 11 25 11 27 0 33 18 13 38 -16 16 -47 15 -54 -2z m37
-19 c-13 -13 -26 -3 -16 12 3 6 11 8 17 5 6 -4 6 -10 -1 -17z"/>
<path d="M1254 666 c-12 -32 0 -61 28 -64 34 -4 54 27 38 58 -12 23 -58 27
-66 6z m50 -39 c-3 -9 -10 -17 -15 -17 -14 0 -22 27 -15 47 6 15 8 15 22 2 8
-9 12 -23 8 -32z"/>
<path d="M1340 639 c0 -47 17 -52 22 -6 2 17 8 32 13 32 6 0 11 -15 13 -32 2
-18 7 -33 12 -33 5 0 10 15 12 33 2 17 8 32 13 32 6 0 11 -15 13 -32 2 -18 8
-33 13 -33 6 0 9 17 7 38 l-3 37 -57 1 -58 1 0 -38z"/>
<path d="M1480 623 c0 -29 5 -53 10 -53 6 0 10 7 10 15 0 9 9 15 25 15 18 0
26 7 31 25 8 33 -10 54 -47 53 -28 -1 -29 -2 -29 -55z m58 11 c-4 -23 -26 -30
-34 -10 -8 20 15 51 29 37 5 -5 7 -17 5 -27z"/>
<path d="M1585 670 c-5 -9 -1 -10 14 -5 30 9 26 -9 -5 -24 -33 -15 -26 -35 15
-39 32 -3 32 -3 29 35 -2 30 -7 39 -25 41 -11 2 -24 -2 -28 -8z m35 -44 c0
-11 -19 -15 -25 -6 -3 5 1 10 9 10 9 0 16 -2 16 -4z"/>
<path d="M1670 639 c0 -47 17 -52 22 -6 2 17 8 32 13 32 6 0 11 -15 13 -32 2
-18 8 -33 13 -33 6 0 9 17 7 38 -3 34 -5 37 -35 38 -32 1 -33 -1 -33 -37z"/>
<path d="M1765 639 c11 -31 12 -45 4 -55 -9 -11 -8 -14 5 -14 14 0 32 32 50
88 11 32 -11 27 -22 -5 l-10 -28 -11 28 c-17 44 -32 31 -16 -14z"/>
<path d="M1331 514 c0 -11 3 -14 6 -6 3 7 2 16 -1 19 -3 4 -6 -2 -5 -13z"/>
<path d="M411 504 c0 -11 3 -14 6 -6 3 7 2 16 -1 19 -3 4 -6 -2 -5 -13z"/>
<path d="M601 504 c0 -11 3 -14 6 -6 3 7 2 16 -1 19 -3 4 -6 -2 -5 -13z"/>
<path d="M801 504 c0 -11 3 -14 6 -6 3 7 2 16 -1 19 -3 4 -6 -2 -5 -13z"/>
<path d="M1251 504 c0 -11 3 -14 6 -6 3 7 2 16 -1 19 -3 4 -6 -2 -5 -13z"/>
<path d="M1491 504 c0 -11 3 -14 6 -6 3 7 2 16 -1 19 -3 4 -6 -2 -5 -13z"/>
<path d="M1580 511 c0 -6 5 -13 10 -16 6 -3 10 1 10 9 0 9 -4 16 -10 16 -5 0
-10 -4 -10 -9z"/>
<path d="M1711 504 c0 -11 3 -14 6 -6 3 7 2 16 -1 19 -3 4 -6 -2 -5 -13z"/>
<path d="M1751 504 c0 -11 3 -14 6 -6 3 7 2 16 -1 19 -3 4 -6 -2 -5 -13z"/>
<path d="M1810 511 c0 -6 4 -13 10 -16 6 -3 7 1 4 9 -7 18 -14 21 -14 7z"/>
</g>
</svg>
