<?xml version="1.0" standalone="no"?>
<!DOCTYPE svg PUBLIC "-//W3C//DTD SVG 20010904//EN"
 "http://www.w3.org/TR/2001/REC-SVG-20010904/DTD/svg10.dtd">
<svg version="1.0" xmlns="http://www.w3.org/2000/svg"
 width="200.000000pt" height="200.000000pt" viewBox="0 0 200.000000 200.000000"
 preserveAspectRatio="xMidYMid meet">

<g transform="translate(0.000000,200.000000) scale(0.100000,-0.100000)"
fill="#000000" stroke="none">
<path d="M0 1000 l0 -1000 1000 0 1000 0 0 1000 0 1000 -1000 0 -1000 0 0
-1000z m632 276 c51 -34 73 -118 44 -174 -20 -39 -48 -61 -95 -75 l-41 -12 46
-69 46 -68 27 26 c41 39 50 31 11 -9 -19 -19 -37 -35 -40 -35 -4 0 -33 39 -64
86 -46 69 -61 85 -79 82 -16 -2 -23 -11 -25 -30 l-3 -28 -90 0 -89 0 0 -31 c0
-17 -4 -28 -10 -24 -5 3 -10 22 -10 41 l0 34 90 0 90 0 0 148 c0 82 3 152 8
156 13 15 156 1 184 -18z m648 -56 l0 -70 95 0 c57 0 95 -4 95 -10 0 -6 -38
-10 -95 -10 l-95 0 0 -109 c0 -100 2 -112 23 -135 33 -39 77 -44 112 -13 16
13 35 40 41 58 10 28 13 30 13 11 1 -30 -24 -79 -48 -92 -11 -5 -37 -10 -58
-10 -31 0 -46 7 -69 31 l-29 30 -3 195 c-2 132 0 194 7 194 7 0 11 -27 11 -70z
m-392 -90 c37 -23 71 -88 72 -137 0 -82 -58 -154 -125 -156 -120 -3 -171 191
-73 279 43 39 78 43 126 14z m136 -215 c28 -43 46 -54 86 -54 76 -1 110 59
110 194 0 62 4 94 10 90 13 -8 13 -150 -1 -200 -6 -21 -26 -54 -45 -73 -32
-32 -38 -34 -80 -29 -81 9 -114 60 -122 188 -2 48 -1 96 4 106 5 12 10 -19 14
-87 4 -81 10 -113 24 -135z m652 216 c34 -21 67 -80 62 -114 -3 -21 -8 -22
-115 -25 -106 -2 -113 -4 -113 -23 0 -26 23 -69 48 -93 45 -40 128 -12 153 52
5 12 13 22 19 22 17 0 -27 -76 -54 -93 -57 -38 -136 -11 -167 56 -35 78 -20
160 40 210 39 32 83 35 127 8z"/>
<path d="M460 1161 l0 -121 60 0 c101 0 150 42 150 129 0 31 -7 49 -29 73 -27
30 -34 33 -105 36 l-76 4 0 -121z"/>
<path d="M770 1102 c-75 -76 -49 -224 43 -247 60 -15 127 55 127 132 0 117
-100 184 -170 115z"/>
<path d="M1562 1114 c-24 -17 -52 -64 -52 -89 0 -13 17 -15 105 -15 105 0 105
0 105 25 0 13 -14 40 -31 60 -25 28 -38 35 -68 35 -20 0 -47 -7 -59 -16z"/>
</g>
</svg>
